<svg height="511pt" viewBox="0 0 511.99943 511" width="511pt" xmlns="http://www.w3.org/2000/svg"><path d="m256 448.789062c3.5 7.558594 7.542969 14.527344 12.039062 20.710938 26.878907 37 74.296876 52.074219 118.09375 37.46875 6.34375-2.109375 10.519532-8.15625 10.238282-14.835938l-1.066406-26.105468 24.488281 9.082031c6.226562 2.257813 13.300781.207031 17.273437-5.140625 27.421875-37.089844 27.757813-89.679688.847656-126.710938-4.480468-6.183593-9.871093-12.175781-15.964843-17.84375l-65.835938-51.390624-100.113281-2.527344-30 89.996094zm0 0" fill="#ffb6fa"/><path d="m445.355469 320.363281c43.519531-14.136719 67.003906-54.625 66.640625-100.722656-.058594-6.679687-4.511719-12.507813-10.941406-14.324219l-25.109376-7.0625 16.171876-20.480468c4.132812-5.242188 4.308593-12.582032.425781-18.015626-26.792969-37.542968-68.628907-53.230468-112.0625-39.109374-7.265625 2.355468-14.632813 5.625-21.914063 9.683593l-75.25 62.28125-27.316406 78.882813 165.949219 53.917968c8.261719-1.011718 16.144531-2.695312 23.421875-5.054687h-.015625zm0 0" fill="#ff9ac9"/><path d="m360.996094 106.5c0 7.5-.902344 15.597656-2.402344 23.695312l-102.59375 141.300782-84.601562-75-17.996094-66.300782c-1.5-8.097656-2.402344-16.195312-2.402344-23.695312 0-45.902344 29.398438-91.449219 73.5-105.25 6.296875-2.097656 13.199219.300781 17.097656 6l14.398438 21.601562 14.398437-21.601562c3.902344-5.699219 10.800781-8.101562 17.101563-6 44.101562 13.800781 73.5 59.347656 73.5 105.25zm0 0" fill="#ffd2fe"/><path d="m360.996094 106.5c0 7.5-.902344 15.597656-2.402344 23.695312l-102.59375 141.300782v-242.644532l14.398438-21.597656c3.898437-5.703125 10.800781-8.101562 17.097656-6 44.101562 13.796875 73.5 59.34375 73.5 105.246094zm0 0" fill="#ffb6fa"/><path d="m153.433594 130.332031c-7.28125-4.058593-14.636719-7.324219-21.914063-9.683593-43.492187-14.105469-85.273437 1.566406-112.0625 39.109374-3.882812 5.4375-3.707031 12.773438.425781 18.019532l16.167969 20.476562-25.105469 7.0625c-6.429687 1.816406-10.882812 7.644532-10.94140575 14.324219-.36718725 46.097656 23.11718775 86.585937 66.62499975 100.722656 7.277344 2.359375 15.160156 4.042969 23.421875 5.054688l70.753907 7.007812 95.195312-60.929687zm0 0" fill="#ffb6fa"/><path d="m90.046875 325.417969c-6.09375 5.667969-11.480469 11.65625-15.964844 17.839843-26.910156 37.03125-26.570312 89.621094.851563 126.710938 3.953125 5.375 11.027344 7.425781 17.269531 5.140625l24.492187-9.082031-1.070312 26.105468c-.277344 6.679688 3.894531 12.726563 10.238281 14.839844 11.132813 3.71875 22.515625 5.519532 33.722657 5.519532 32.855468-.015626 64.332031-15.394532 84.371093-42.992188 4.5-6.179688 8.542969-13.152344 12.042969-20.710938v-177.292968zm0 0" fill="#ffd2fe"/><g fill="#ffb64c"><path d="m270.996094 136.496094v75c0 8.398437-6.597656 15-14.996094 15-8.402344 0-15-6.601563-15-15v-75c0-8.398438 6.597656-14.996094 15-14.996094 8.398438 0 14.996094 6.597656 14.996094 14.996094zm0 0"/><path d="m198.929688 267.949219c-1.539063 0-3.089844-.230469-4.628907-.730469l-71.324219-23.171875c-7.878906-2.566406-12.199218-11.03125-9.636718-18.898437 2.578125-7.878907 11-12.199219 18.894531-9.636719l71.324219 23.171875c7.878906 2.5625 12.199218 11.03125 9.636718 18.898437-2.0625 6.339844-7.9375 10.367188-14.265624 10.367188zm0 0"/><path d="m176.632812 395.714844c-3.058593 0-6.136718-.941406-8.800781-2.871094-6.695312-4.863281-8.1875-14.238281-3.3125-20.949219l44.078125-60.671875c4.847656-6.710937 14.191406-8.203125 20.945313-3.3125 6.695312 4.863282 8.1875 14.238282 3.3125 20.949219l-44.078125 60.671875c-2.929688 4.042969-7.5 6.183594-12.144532 6.183594zm0 0"/></g><path d="m335.363281 395.714844c-4.644531 0-9.214843-2.140625-12.144531-6.183594l-44.078125-60.671875c-4.875-6.710937-3.382813-16.085937 3.3125-20.949219 6.738281-4.863281 16.097656-3.382812 20.945313 3.3125l44.078124 60.671875c4.878907 6.710938 3.382813 16.085938-3.3125 20.949219-2.664062 1.929688-5.753906 2.871094-8.800781 2.871094zm0 0" fill="#ff9100"/><path d="m313.066406 267.949219c-6.324218 0-12.199218-4.027344-14.265625-10.367188-2.5625-7.867187 1.757813-16.335937 9.636719-18.898437l71.324219-23.171875c7.878906-2.578125 16.316406 1.757812 18.894531 9.636719 2.5625 7.867187-1.757812 16.332031-9.636719 18.898437l-71.324219 23.171875c-1.535156.5-3.089843.730469-4.628906.730469zm0 0" fill="#ff9100"/><path d="m270.996094 136.496094v75c0 8.398437-6.597656 15-14.996094 15v-104.996094c8.398438 0 14.996094 6.597656 14.996094 14.996094zm0 0" fill="#ff9100"/><path d="m256 196.496094c-41.402344 0-75 33.601562-75 75 0 41.398437 33.597656 75 75 75 41.398438 0 74.996094-33.601563 74.996094-75 0-41.398438-33.597656-75-74.996094-75zm0 0" fill="#ffb64c"/><path d="m330.996094 271.496094c0 41.398437-33.597656 75-74.996094 75v-150c41.398438 0 74.996094 33.601562 74.996094 75zm0 0" fill="#ff9100"/><path d="m300.996094 271.496094c0 24.898437-20.097656 45-44.996094 45-24.902344 0-45-20.101563-45-45 0-24.902344 20.097656-45 45-45 24.898438 0 44.996094 20.101562 44.996094 45zm0 0" fill="#fde4e4"/><path d="m300.996094 271.496094c0 24.898437-20.097656 45-44.996094 45v-90c24.898438 0 44.996094 20.101562 44.996094 45zm0 0" fill="#fcced3"/></svg>